<svg width="11" height="9" viewBox="0 0 11 9" version="1.1" xmlns="http://www.w3.org/2000/svg" xmlns:xlink="http://www.w3.org/1999/xlink">
<title>Vector</title>
<desc>Created using Figma</desc>
<g id="Canvas" transform="translate(-457 -1100)">
<g id="Vector">
<use xlink:href="#path0_fill" transform="translate(457 1100)" fill="#2D9CDB"/>
</g>
</g>
<defs>
<path id="path0_fill" d="M 10.5866 0.513489L 10.2921 0.272793C 9.80316 -0.126845 9.06847 -0.0822987 8.63682 0.373001L 3.70955 5.56974L 2.22223 4.35129C 1.73383 3.9512 0.999034 3.99485 0.566869 4.44966L 0.306445 4.72377C 0.0952521 4.94592 -0.014404 5.23897 0.00152072 5.53832C 0.0176024 5.83749 0.157919 6.11836 0.391832 6.31916L 3.11816 8.69393C 3.3542 8.90477 3.67054 9.01473 3.99388 8.99841C 4.31722 8.98213 4.61952 8.84083 4.83074 8.60737L 10.7127 2.10654C 10.9182 1.87941 11.0203 1.58397 10.9966 1.28524C 10.973 0.986304 10.8255 0.708742 10.5866 0.513489Z"/>
</defs>
</svg>
