<svg width="16" height="16" viewBox="0 0 16 16" version="1.1" xmlns="http://www.w3.org/2000/svg" xmlns:xlink="http://www.w3.org/1999/xlink">
<title>Union</title>
<desc>Created using Figma</desc>
<g id="Canvas" transform="translate(-2343 91)">
<g id="Union">
<use xlink:href="#path0_fill" transform="translate(2343 -91)" fill="#000000" fill-opacity="0.2"/>
</g>
</g>
<defs>
<path id="path0_fill" fill-rule="evenodd" d="M 0.516785 0.516621C -0.17218 1.20545 -0.17218 2.32225 0.516785 3.01108L 5.50555 7.99988L 0.516541 12.9889C -0.17218 13.6778 -0.17218 14.7946 0.516541 15.4834C 1.20551 16.1722 2.3222 16.1722 3.01093 15.4834L 7.99994 10.4943L 12.989 15.4834C 13.6777 16.1722 14.7944 16.1722 15.4833 15.4834C 16.1721 14.7946 16.1721 13.6778 15.4833 12.9889L 10.4943 7.99988L 15.4831 3.01108C 16.1721 2.32225 16.1721 1.20545 15.4831 0.516621C 14.7944 -0.172207 13.6777 -0.172207 12.9887 0.516621L 7.99994 5.50544L 3.01117 0.516621C 2.3222 -0.172207 1.20551 -0.172207 0.516785 0.516621Z"/>
</defs>
</svg>
