<svg width="60" height="68" viewBox="0 0 60 68" version="1.1" xmlns="http://www.w3.org/2000/svg" xmlns:xlink="http://www.w3.org/1999/xlink">
<title>Group</title>
<desc>Created using Figma</desc>
<g id="Canvas" transform="translate(-1420 -1077)">
<g id="Group">
<g id="Vector">
<use xlink:href="#path0_fill" transform="matrix(0.897293 0.441435 -0.441435 0.897293 1433.28 1070)" fill="#CCCCCC"/>
</g>
<g id="Vector">
<use xlink:href="#path1_fill" transform="matrix(0.897293 0.441435 -0.441435 0.897293 1455.78 1104.52)" fill="#CCCCCC"/>
</g>
<g id="Vector">
<use xlink:href="#path2_fill" transform="matrix(0.897293 0.441435 -0.441435 0.897293 1427.22 1112.91)" fill="#CCCCCC"/>
</g>
</g>
</g>
<defs>
<path id="path0_fill" d="M 4.53724 25.0339C 4.90052 26.2826 5.40466 27.4867 6.04226 28.6165L 4.22585 30.9133C 3.63274 31.664 3.69946 32.7343 4.36672 33.4107L 7.49538 36.5474C 8.17005 37.2238 9.23765 37.2831 9.98645 36.6885L 12.2625 34.8823C 13.4339 35.5588 14.6795 36.0865 15.9769 36.4581L 16.3179 39.3941C 16.4291 40.3455 17.2298 41.059 18.1788 41.059L 22.6049 41.059C 23.5539 41.059 24.3546 40.3454 24.4658 39.3941L 24.792 36.5622C 26.1858 36.1979 27.5203 35.6553 28.7733 34.9492L 30.9752 36.6959C 31.724 37.2906 32.7916 37.2237 33.4663 36.5547L 36.595 33.4181C 37.2696 32.7417 37.3289 31.6713 36.7358 30.9206L 35.0232 28.7428C 35.7349 27.5089 36.291 26.1933 36.6617 24.8183L 39.301 24.5135C 40.2501 24.402 40.9618 23.5993 40.9618 22.6479L 40.9618 18.2105C 40.9618 17.2591 40.25 16.4563 39.301 16.3448L 36.6988 16.0401C 36.3428 14.6799 35.8091 13.3791 35.1271 12.1601L 36.7285 10.131C 37.3216 9.38025 37.2549 8.30992 36.5876 7.63353L 33.4664 4.5043C 32.7917 3.82791 31.7241 3.76845 30.9753 4.36308L 29.0106 5.92398C 27.7354 5.17326 26.3712 4.60093 24.9404 4.21442L 24.6438 1.66496C 24.5326 0.713553 23.7319 -8.50616e-10 22.7829 -8.50616e-10L 18.3568 -8.50616e-10C 17.4078 -8.50616e-10 16.6071 0.713553 16.4959 1.66496L 16.1994 4.21442C 14.7314 4.60836 13.3302 5.20299 12.0254 5.98344L 9.98653 4.36308C 9.23772 3.76845 8.17012 3.83535 7.49546 4.5043L 4.36679 7.64096C 3.69212 8.31735 3.63281 9.38768 4.22593 10.1384L 5.93112 12.3014C 5.24904 13.5352 4.73007 14.8508 4.38903 16.2185L 1.66071 16.5306C 0.711735 16.6421 3.52686e-12 17.4449 3.52686e-12 18.3963L 3.52686e-12 22.8337C 3.52686e-12 23.7851 0.711735 24.5878 1.66071 24.6993L 4.53724 25.0339ZM 20.5735 13.0298C 24.6067 13.0298 27.891 16.3226 27.891 20.3661C 27.891 24.4095 24.6067 27.7023 20.5735 27.7023C 16.5404 27.7023 13.256 24.4095 13.256 20.3661C 13.256 16.3226 16.5403 13.0298 20.5735 13.0298Z"/>
<path id="path1_fill" d="M 28.8978 5.08994L 26.5624 3.1128C 25.8433 2.5033 24.783 2.53304 24.101 3.17969L 22.811 4.39125C 21.7213 3.86352 20.5647 3.49187 19.371 3.27632L 19.0078 1.49244C 18.8225 0.570766 17.9699 -0.0684582 17.0356 0.00587025L 13.9885 0.26602C 13.0543 0.347781 12.3203 1.11336 12.2907 2.05733L 12.2315 3.87095C 11.06 4.29462 9.95531 4.87438 8.94702 5.6028L 7.40501 4.57707C 6.61898 4.05677 5.5737 4.20543 4.96583 4.92641L 2.99373 7.28262C 2.38572 8.00361 2.41537 9.06651 3.06031 9.75033L 4.40971 11.1922C 3.94256 12.2477 3.60894 13.3553 3.41625 14.4924L 1.48864 14.8863C 0.569311 15.0722 -0.0682847 15.9269 0.00585435 16.8636L 0.265341 19.9185C 0.346894 20.855 1.11053 21.5908 2.05209 21.6206L 4.1354 21.6874C 4.51366 22.6834 5.01031 23.6274 5.61076 24.5119L 4.44686 26.2735C 3.92788 27.0613 4.07616 28.1094 4.79523 28.7189L 7.13061 30.696C 7.84984 31.3055 8.90995 31.2758 9.59211 30.6291L 11.1194 29.1946C 12.1202 29.6628 13.1729 30.0122 14.2554 30.2203L 14.678 32.3164C 14.8634 33.238 15.716 33.8773 16.6501 33.8029L 19.6973 33.5428C 20.6314 33.461 21.3654 32.6955 21.395 31.7515L 21.4618 29.6999C 22.5739 29.306 23.6266 28.7708 24.5978 28.1094L 26.2808 29.2243C 27.0667 29.7446 28.112 29.5959 28.72 28.875L 30.6921 26.5336C 31.2999 25.8126 31.2703 24.7497 30.6253 24.0659L 29.2685 22.624C 29.7653 21.5686 30.1287 20.4536 30.3361 19.3089L 32.1896 18.9298C 33.1089 18.744 33.7465 17.8892 33.6724 16.9526L 33.4129 13.8977C 33.3314 12.9612 32.5677 12.2253 31.6262 12.1956L 29.7653 12.1361C 29.3797 11.0509 28.8607 10.0253 28.2158 9.07379L 29.2314 7.54262C 29.7653 6.75489 29.617 5.69943 28.8978 5.08994ZM 17.4138 22.7503C 14.122 23.0328 11.2156 20.5725 10.9414 17.2724C 10.6596 13.9722 13.1137 11.0584 16.4053 10.7834C 19.6971 10.501 22.6035 12.9613 22.8777 16.2614C 23.1595 19.5617 20.7054 22.4754 17.4138 22.7503Z"/>
<path id="path2_fill" d="M 1.68319 10.83C 0.749037 10.9266 0.0298883 11.7144 0.0224744 12.6584L 0.00023245 14.5389C -0.0145954 15.4829 0.682312 16.2857 1.61646 16.4047L 2.99545 16.583C 3.22528 17.423 3.55149 18.2257 3.97408 18.9839L 3.08442 20.0839C 2.4913 20.8197 2.53579 21.8752 3.19562 22.5516L 4.50789 23.897C 5.16772 24.5734 6.2205 24.6477 6.9693 24.0679L 8.0739 23.2132C 8.85236 23.674 9.67538 24.0383 10.5353 24.2909L 10.6836 25.718C 10.78 26.6546 11.5658 27.3755 12.5074 27.383L 14.3832 27.4053C 15.3247 27.4201 16.1255 26.7215 16.2441 25.7849L 16.4146 24.4321C 17.3488 24.2016 18.2385 23.8524 19.0836 23.3915L 20.1216 24.2315C 20.8555 24.8261 21.9084 24.7815 22.5831 24.12L 23.925 22.8043C 24.5996 22.1429 24.6738 21.0874 24.0956 20.3366L 23.3021 19.3034C 23.7915 18.4858 24.1696 17.6161 24.4291 16.7019L 25.6598 16.5755C 26.594 16.4789 27.3131 15.691 27.3205 14.7471L 27.3427 12.8665C 27.3576 11.9226 26.6607 11.1198 25.7266 11.0008L 24.5254 10.8448C 24.2956 9.93795 23.9546 9.06087 23.5098 8.24326L 24.2586 7.32158C 24.8517 6.58573 24.8072 5.53027 24.1474 4.85388L 22.8352 3.50854C 22.1754 2.83207 21.1224 2.75775 20.3737 3.33758L 19.4766 4.02883C 18.6314 3.51597 17.7269 3.12203 16.778 2.85445L 16.6593 1.68749C 16.5629 0.750877 15.7771 0.0299632 14.8355 0.0225304L 12.9597 0.000232781C 12.0182 -0.0146329 11.2175 0.684053 11.0988 1.62059L 10.9505 2.78019C 9.97193 3.03283 9.03037 3.41941 8.15553 3.92477L 7.22879 3.16662C 6.49481 2.57199 5.44196 2.61667 4.7673 3.27811L 3.41797 4.60124C 2.7433 5.26269 2.66916 6.31822 3.24745 7.06886L 4.04074 8.09467C 3.58107 8.91229 3.21779 9.78185 2.98055 10.6962L 1.68319 10.83ZM 13.7901 8.70409C 16.4813 8.73382 18.6387 10.9563 18.6091 13.6544C 18.5795 16.3526 16.3626 18.5154 13.6714 18.4858C 10.9802 18.4561 8.82278 16.2336 8.85236 13.5354C 8.88209 10.8374 11.0988 8.67443 13.7901 8.70409Z"/>
</defs>
</svg>
