<svg class="icon" width="74" height="74" viewBox="0 0 74 74" version="1.1" xmlns="http://www.w3.org/2000/svg" xmlns:xlink="http://www.w3.org/1999/xlink">
<title>Subtract</title>
<desc>Created using Figma</desc>
<g id="Canvas" transform="translate(-915 -659)">
<g id="Subtract">
<use xlink:href="#path0_fill" transform="translate(915.206 659.221)" fill-opacity="0.35"/>
</g>
</g>
<defs>
<path id="path0_fill" fill-rule="evenodd" d="M 73.5875 36.7787C 73.5875 57.0911 57.1144 73.5574 36.7938 73.5574C 16.4731 73.5574 0 57.0911 0 36.7787C 0 16.4664 16.4731 0 36.7938 0C 57.1144 0 73.5875 16.4664 73.5875 36.7787ZM 55.8184 51.1122L 46.9392 42.2369C 49.079 39.1492 50.1495 35.7077 50.1495 31.9122C 50.1495 29.4454 49.6703 27.0861 48.7122 24.835C 47.7546 22.5834 46.4601 20.6428 44.8293 19.0126C 43.1984 17.3823 41.2573 16.0884 39.0053 15.1311C 36.7526 14.1735 34.3926 13.6948 31.9247 13.6948C 29.4571 13.6948 27.0969 14.1735 24.8448 15.1311C 22.5925 16.0884 20.651 17.3823 19.0201 19.0126C 17.3891 20.6428 16.0948 22.5838 15.1371 24.835C 14.1793 27.0864 13.7003 29.4454 13.7003 31.9122C 13.7003 34.3789 14.1793 36.7374 15.1371 38.9891C 16.0947 41.2403 17.3891 43.1807 19.0201 44.8115C 20.651 46.4417 22.5928 47.7351 24.8448 48.6929C 27.0972 49.6503 29.4571 50.1289 31.9247 50.1289C 35.7219 50.1289 39.1649 49.0588 42.254 46.92L 51.1331 55.7695C 51.7544 56.4249 52.53 56.7529 53.4627 56.7529C 54.3775 56.7529 55.1581 56.4296 55.8054 55.7826C 56.4527 55.1357 56.7759 54.3553 56.7759 53.4409C 56.7759 52.5265 56.457 51.7505 55.8184 51.1122ZM 40.118 40.1013C 37.8486 42.3701 35.1178 43.5045 31.9247 43.5045C 28.7323 43.5045 26.0014 42.3699 23.7319 40.1013C 21.4623 37.8328 20.3276 35.1035 20.3276 31.9117C 20.3276 28.7205 21.4626 25.9902 23.7319 23.722C 26.001 21.4533 28.7323 20.3192 31.9247 20.3192C 35.1174 20.3192 37.8483 21.4538 40.118 23.722C 42.3878 25.9902 43.5225 28.7205 43.5225 31.9117C 43.5225 35.1035 42.3874 37.8328 40.118 40.1013ZM 33.5823 30.2561L 39.381 30.2561C 39.6056 30.2561 39.7998 30.3381 39.9636 30.5019C 40.1272 30.6658 40.2087 30.8598 40.2087 31.0841L 40.2087 32.7401C 40.2087 32.9644 40.1272 33.1585 39.9636 33.3223C 39.7991 33.4861 39.6056 33.5682 39.3809 33.5682L 33.5823 33.5682L 33.5823 39.3646C 33.5823 39.5891 33.5002 39.7829 33.3364 39.9471C 33.1724 40.1105 32.9782 40.1924 32.754 40.1924L 31.0973 40.1924C 30.873 40.1924 30.679 40.1105 30.5149 39.9471C 30.3511 39.7829 30.269 39.5891 30.269 39.3646L 30.269 33.5682L 24.4703 33.5682C 24.2458 33.5682 24.052 33.4863 23.888 33.3223C 23.7239 33.1585 23.6421 32.9644 23.6421 32.7401L 23.6421 31.0841C 23.6421 30.8598 23.7239 30.6658 23.888 30.5019C 24.0519 30.3381 24.246 30.2561 24.4703 30.2561L 30.269 30.2561L 30.269 24.4598C 30.269 24.2355 30.3511 24.0415 30.5149 23.8776C 30.6788 23.7136 30.873 23.6318 31.0973 23.6318L 32.7541 23.6318C 32.9782 23.6318 33.1724 23.7136 33.3364 23.8776C 33.5003 24.0415 33.5823 24.2355 33.5823 24.4598L 33.5823 30.2561Z"/>
</defs>
</svg>
