<svg width="63" height="117" viewBox="0 0 63 117" version="1.1" xmlns="http://www.w3.org/2000/svg" xmlns:xlink="http://www.w3.org/1999/xlink">
<title>Group</title>
<desc>Created using Figma</desc>
<g id="Canvas" transform="translate(-1359 -1024)">
<g id="Group">
<g id="Group">
<g id="Vector">
<use xlink:href="#path0_fill" transform="translate(1359 1024)" fill="#CCCCCC"/>
</g>
<g id="Vector">
<use xlink:href="#path1_fill" transform="translate(1375.57 1054.43)" fill="#CCCCCC"/>
</g>
</g>
</g>
</g>
<defs>
<path id="path0_fill" d="M 63 86.6478C 63 78.0087 56.0303 71.0038 47.4382 71.0038L 41.4507 71.0038L 41.4507 67.8889C 47.0236 65.3589 51.4906 60.7816 53.8841 55.1038C 58.8095 54.3946 62.5999 50.1463 62.5999 44.9913C 62.5999 39.6645 58.5439 35.292 53.3676 34.813C 52.0471 32.0783 50.221 29.6361 48.0312 27.5851L 56.3213 3.73333C 56.8342 2.27458 56.0631 0.669597 54.608 0.157757C 53.153 -0.354084 51.556 0.420989 51.0468 1.88339L 43.3168 24.1192C 39.8247 22.1523 35.8088 21.0153 31.5236 20.997C 31.5164 20.997 31.5055 20.997 31.4945 20.997C 31.4836 20.997 31.4764 20.997 31.4654 20.997C 27.1912 21.0226 23.1717 22.1523 19.6795 24.1192L 11.9532 1.88339C 11.444 0.424645 9.85068 -0.350428 8.392 0.157757C 6.93695 0.669597 6.16941 2.27093 6.67868 3.73333L 14.9688 27.5851C 12.779 29.6361 10.9565 32.0783 9.63243 34.813C 4.45245 35.2956 0.3965 39.6719 0.3965 44.9986C 0.3965 50.1463 4.1869 54.3946 9.11224 55.1148C 11.5094 60.7889 15.9692 65.3662 21.5456 67.8962L 21.5456 71.0111L 15.5618 71.0111C 6.96605 71.0075 2.91405e-07 78.0124 2.91405e-07 86.6515C 2.91405e-07 95.1992 6.82418 102.142 15.2998 102.285L 15.2998 117L 27.2749 117L 27.2749 102.292L 31.4727 102.292L 31.5309 102.292L 35.7287 102.292L 35.7287 117L 47.7002 117L 47.7002 102.288C 56.1722 102.142 63 95.1992 63 86.6478ZM 49.5881 77.7711L 53.2002 81.4051C 52.7965 81.6647 52.309 81.8219 51.7925 81.8219C 50.3447 81.8219 49.1698 80.6447 49.1698 79.1896C 49.1734 78.6668 49.3298 78.1805 49.5881 77.7711ZM 49.5881 84.7577L 53.2002 88.3918C 52.7965 88.655 52.309 88.8122 51.7925 88.8122C 50.3447 88.8122 49.1698 87.6313 49.1698 86.1726C 49.1734 85.6534 49.3298 85.1672 49.5881 84.7577ZM 13.7684 45.5361C 13.7684 35.6978 21.6948 27.6911 31.4691 27.6217C 31.48 27.6217 31.4873 27.6217 31.4982 27.6217C 31.5055 27.6217 31.5164 27.6217 31.5273 27.6217C 41.3016 27.6948 49.2316 35.6978 49.2316 45.5361C 49.2316 55.3671 41.2979 63.381 31.5273 63.4468C 31.52 63.4468 31.5091 63.4468 31.4982 63.4468C 31.4873 63.4468 31.48 63.4468 31.4691 63.4468C 21.6948 63.381 13.7684 55.3707 13.7684 45.5361ZM 51.7961 96.19C 50.3483 96.19 49.1734 95.0091 49.1734 93.5577C 49.1734 93.0276 49.3298 92.5486 49.5881 92.1392L 53.2002 95.7659C 52.7965 96.0328 52.3127 96.19 51.7961 96.19ZM 53.9969 94.9762L 50.3884 91.3385C 50.7921 91.0826 51.2759 90.9254 51.7961 90.9254C 53.2439 90.9254 54.4225 92.099 54.4225 93.5614C 54.4152 94.0732 54.2588 94.5594 53.9969 94.9762ZM 53.9969 87.5911L 50.3884 83.9607C 50.7921 83.7011 51.2759 83.5439 51.7961 83.5439C 53.2439 83.5439 54.4225 84.7211 54.4225 86.1762C 54.4152 86.6954 54.2588 87.1816 53.9969 87.5911ZM 53.9969 80.6045L 50.3884 76.9704C 50.7921 76.7072 51.2759 76.5536 51.7961 76.5536C 53.2439 76.5536 54.4225 77.7309 54.4225 79.1933C 54.4152 79.7124 54.2588 80.195 53.9969 80.6045Z"/>
<path id="path1_fill" d="M 29.8722 15.103C 29.8722 6.80017 23.1789 0.0511839 14.9361 -1.67359e-07C 6.68959 0.0511839 1.66517e-06 6.80017 1.66517e-06 15.103C 1.66517e-06 23.4021 6.68959 30.1511 14.9361 30.2059C 23.1789 30.1474 29.8722 23.4021 29.8722 15.103ZM 4.1869 15.103C 4.1869 9.12173 8.97402 4.28118 14.907 4.21172L 14.907 4.20806C 14.9179 4.20806 14.9252 4.20806 14.9361 4.20806C 14.9434 4.20806 14.9543 4.20806 14.9652 4.20806L 14.9652 4.21172C 20.8945 4.28118 25.678 9.12539 25.678 15.103C 25.678 21.0769 20.8945 25.9247 14.9652 25.9942C 14.9579 25.9942 14.947 25.9942 14.9361 25.9942C 14.9252 25.9942 14.9179 25.9942 14.907 25.9942C 8.97402 25.9247 4.1869 21.0769 4.1869 15.103Z"/>
</defs>
</svg>
